<svg xmlns="http://www.w3.org/2000/svg" viewBox="0 0 90.98007 87.55623">
  <title>end_serving</title>
  <g id="Layer_2" data-name="Layer 2">
    <g id="Layer_1-2" data-name="Layer 1">
      <path d="M69.48541,8.19244l-8.09861,7.44247c-8.78767-5.11453-18.09767-6.32765-27.83218-3.18448a32.27961,32.27961,0,0,0-17.68,13.74886,32.80533,32.80533,0,0,0,4.96609,41.2274,33.32276,33.32276,0,0,0,41.81017,3.58255A32.13907,32.13907,0,0,0,76.258,51.37647,32.49852,32.49852,0,0,0,72.9325,27.59385l7.88358-7.526A43.25553,43.25553,0,0,1,74.84793,74.838a43.89721,43.89721,0,0,1-61.39473.3975A43.49957,43.49957,0,0,1,11.10793,14.744,43.92025,43.92025,0,0,1,69.48541,8.19244Z"/>
      <path d="M40.48542,47.37138a20.028,20.028,0,0,0,3.27141-5.03711,80.12607,80.12607,0,0,1,7.08939-10.731A152.42646,152.42646,0,0,1,77.104,5.50351C78.981,4.008,80.9248,2.59608,82.84927,1.161A1.30863,1.30863,0,0,1,83.621.84076c2.80134.24711,5.20391,1.23841,6.57226,3.88109a9.61371,9.61371,0,0,1,.59938,5.91,1.29357,1.29357,0,0,1-1.05988,1.22052A31.53751,31.53751,0,0,0,79.32082,17.961a103.63063,103.63063,0,0,0-14.5624,15.02506A239.73608,239.73608,0,0,0,47.995,56.307c-.3877.60908-.62568,1.31186-.99443,1.93487a8.02923,8.02923,0,0,1-12.67015,1.66465c-3.49223-3.40206-6.9019-6.88886-10.39291-10.2922a9.49342,9.49342,0,0,1-3.02891-4.84594,6.81716,6.81716,0,0,1,2.45865-6.96428c2.07885-1.75882,4.52067-1.617,6.95543-.7502a2.15908,2.15908,0,0,1,.73894.563q4.52484,4.62977,9.03427,9.27459C40.23053,47.03,40.341,47.19205,40.48542,47.37138Z"/>
    </g>
  </g>
</svg>
