<svg xmlns="http://www.w3.org/2000/svg" viewBox="0 0 49.06417 86.40482">
  <defs>
    <style>
      .cls-1 {
        fill: #fff;
      }

      .cls-2 {
        stroke: #000;
        stroke-miterlimit: 10;
        stroke-width: 0.25px;
      }
    </style>
  </defs>
  <title>pour-beer_icon</title>
  <g id="Layer_2" data-name="Layer 2">
    <g id="Layer_2-2" data-name="Layer 2">
      <path class="cls-1" d="M5.91415,44.90231V0h43.15q0,28.25559,0,56.51119H48.188a5.78825,5.78825,0,0,0,.60357-1.73794c.041-7.55491.02719-15.11012.02719-22.66525q0-8.1026-.00127-16.20521c-.0008-1.34907-.18225-1.53876-1.49419-1.5542-1.13126-.01331-2.26381.02119-3.3934-.02449-.2515-.01017-.493-.26751-.73911-.411a4.01058,4.01058,0,0,1,.5821-.74573A2.62858,2.62858,0,0,1,44.4897,12.92,6.49043,6.49043,0,1,0,40.04519.72394,6.69629,6.69629,0,0,0,35.82462,6.9394a6.61166,6.61166,0,0,0,4.67644,6.10031c.68569.21908,1.15181.41322.73824,1.30617-1.26941,0-2.54233-.00794-3.8151.00209-1.46606.01155-1.6083.15186-1.61054,1.65436q-.00965,6.46-.00165,12.92011c0,.4207,0,.8414,0,1.27013H27.93574A6.6569,6.6569,0,0,1,28.91,28.968a2.30044,2.30044,0,0,0,.9735-3.00514,1.599,1.599,0,0,1,.09-.97472,1.86984,1.86984,0,0,0-.56032-2.36766c-1.07234-.65892-1.03175-1.51326-.92189-2.50075.08059-.72442.14389-1.45087.20759-2.17706.33446-3.8131.60366-7.63328,1.0189-11.43754A5.45208,5.45208,0,0,0,24.72632.29043a5.22217,5.22217,0,0,0-5.25267,5.59994c.341,4.98164.815,9.95432,1.2533,14.929.0536.60844.08421,1.04619-.57594,1.44626-1.15952.7027-1.32781,1.57447-.84682,2.92575a1.12407,1.12407,0,0,1,.01638.68525c-.52321,1.55168-.30583,2.1625,1.0373,3.166a1.26322,1.26322,0,0,1,.44618.93984c-.01506.24229-.39123.49624-.65142.6831a19.11443,19.11443,0,0,0-2.8169,1.99928C13.48312,36.70065,9.71322,40.8154,5.91415,44.90231Z"/>
      <path d="M5.91415,44.90231c3.79907-4.08691,7.569-8.20166,11.42158-12.23747a19.11443,19.11443,0,0,1,2.8169-1.99928c.26019-.18686.63636-.4408.65142-.6831a1.26322,1.26322,0,0,0-.44618-.93984c-1.34313-1.00351-1.5605-1.61433-1.0373-3.166a1.12407,1.12407,0,0,0-.01638-.68525c-.481-1.35128-.3127-2.223.84682-2.92575.66015-.40007.62954-.83782.57594-1.44626-.43829-4.97466-.91232-9.94734-1.2533-14.929A5.22217,5.22217,0,0,1,24.72632.29043a5.45208,5.45208,0,0,1,4.99144,6.21469c-.41523,3.80425-.68443,7.62443-1.0189,11.43754-.0637.72619-.127,1.45264-.20759,2.17706-.10986.98749-.15045,1.84184.92189,2.50075a1.86984,1.86984,0,0,1,.56032,2.36766,1.599,1.599,0,0,0-.09.97472A2.30044,2.30044,0,0,1,28.91,28.968a6.6569,6.6569,0,0,0-.97429,1.22459H35.812c0-.42873,0-.84943,0-1.27013q-.00034-6.46006.00165-12.92011c.00224-1.5025.14448-1.64281,1.61054-1.65436,1.27277-.01,2.54568-.00209,3.8151-.00209.41357-.893-.05255-1.08709-.73824-1.30617A6.61166,6.61166,0,0,1,35.82462,6.9394,6.69629,6.69629,0,0,1,40.04519.72394,6.49043,6.49043,0,1,1,44.4897,12.92a2.62858,2.62858,0,0,0-.71678.24731,4.01058,4.01058,0,0,0-.5821.74573c.24611.14354.48761.40087.73911.411,1.12959.04568,2.26214.01118,3.3934.02449,1.31194.01544,1.49339.20513,1.49419,1.5542q.00479,8.1026.00127,16.20521c0,7.55513.01385,15.11034-.02719,22.66525A5.78825,5.78825,0,0,1,48.188,56.5112H36.3601a6.10973,6.10973,0,0,1-.52347-1.67963c-.04437-4.66541-.0265-9.3314-.032-13.99721-.00045-.38657-.03426-.77311-.05707-1.25459-.45686,0-.81444.00007-1.172,0-3.13491-.00068-6.27054.038-9.40443-.01921a6.24088,6.24088,0,0,0-3.95983,1.27655c-3.52961,2.58024-7.10584,5.09665-10.64237,7.66755a1.23721,1.23721,0,0,1-1.89823-.14976c-.89358-.95547-1.83535-1.86586-2.75658-2.79547Zm3.823,1.9604c3.58085-2.5672,7.1162-5.083,10.62886-7.63a7.18931,7.18931,0,0,1,4.26884-1.47055c3.86856-.01776,7.7373.00452,11.60585-.01424,1.02318-.005,1.42532.42962,1.41868,1.45783-.03041,4.70794-.01617,9.41617-.01793,14.1243-.00015.39114,0,.78227,0,1.22786h9.32112V16.22849H37.6414v1.25363q0,6.46-.00091,12.92c-.00093,1.50785-.12513,1.64286-1.6126,1.64768-4.41547.01431-8.83114.04111-13.24641.013a5.36953,5.36953,0,0,0-4.23556,1.88539c-3.123,3.42434-6.30138,6.79808-9.45646,10.19315-.31722.34135-.6254.69109-.91485,1.01155ZM26.52295,21.766c.065-.5952.13889-1.16731.18853-1.7415.40116-4.64072.76536-9.28495,1.20976-13.9215.21477-2.24078-1.01145-3.88171-3.13783-3.98045a3.16919,3.16919,0,0,0-3.53248,3.58473c.0818,1.88929.28214,3.77379.44466,5.65915.2966,3.44088.60407,6.88082.91391,10.39957ZM37.64634,6.79921a4.55135,4.55135,0,0,0,4.622,4.75364,4.65534,4.65534,0,0,0,4.7713-4.76724,4.60049,4.60049,0,0,0-4.7321-4.67155A4.48634,4.48634,0,0,0,37.64634,6.79921ZM24.56049,23.64961v.00676c-.98325,0-1.96859-.03523-2.94839.02288-.27093.01607-.52539.30987-.78741.47624.23324.16586.46409.47163.70008.47565q3.0578.0521,6.11673-.01063c.22253-.00452.43879-.31766.658-.48765-.22666-.16108-.4469-.4494-.6811-.46122C26.6013,23.62031,25.58016,23.64961,24.56049,23.64961Zm.0379,2.83778c-1.02174,0-2.04493-.02925-3.06413.02158-.24.012-.46659.29394-.69935.45171.23183.15391.46133.43722.69587.44145q3.06386.05529,6.129.00738c.21418-.003.42486-.25639.63717-.39362-.21112-.17577-.41478-.49167-.63462-.50336C26.64348,26.45833,25.62013,26.48857,24.5984,26.48739ZM22.62054,29.918l.19034.3231c1.03815,0,2.07726.02288,3.11358-.02066.19118-.008.37107-.28476.55617-.43748-.18673-.15243-.36671-.42561-.56135-.43649a18.913,18.913,0,0,0-2.59348.0058C23.07693,29.37268,22.85488,29.72038,22.62054,29.918Z"/>
      <path class="cls-1" d="M5.91415,45.55942c.92122.92961,1.863,1.84,2.75658,2.79547a1.23721,1.23721,0,0,0,1.89823.14976c3.53653-2.5709,7.11275-5.08731,10.64237-7.66755a6.24088,6.24088,0,0,1,3.95983-1.27655c3.13388.05718,6.26951.01853,9.40443.01921.35758.00008.71516,0,1.172,0,.02281.48149.05661.868.05707,1.25459.00547,4.66581-.0124,9.3318.032,13.99721a6.10973,6.10973,0,0,0,.52347,1.67963H5.91415Z"/>
      <path class="cls-1" d="M9.73711,46.86271,8.1746,45.15294c.28945-.32046.59763-.6702.91485-1.01155,3.15508-3.39506,6.3335-6.76881,9.45646-10.19315a5.36953,5.36953,0,0,1,4.23556-1.88539c4.41527.02808,8.83093.00129,13.24641-.013,1.48747-.00482,1.61167-.13983,1.6126-1.64768q.004-6.46.00091-12.92V16.22849h9.32112V54.55791H37.64139c0-.44559-.00013-.83673,0-1.22786.00176-4.70813-.01248-9.41636.01793-14.1243.00664-1.02821-.39549-1.46279-1.41868-1.45783-3.86855.01876-7.73729-.00352-11.60585.01424A7.18931,7.18931,0,0,0,20.366,39.23271C16.85332,41.77976,13.318,44.29551,9.73711,46.86271Z"/>
      <path class="cls-1" d="M26.52295,21.766H22.60949c-.30984-3.51875-.61732-6.95869-.91391-10.39957-.16252-1.88536-.36286-3.76987-.44466-5.65915A3.16919,3.16919,0,0,1,24.7834,2.12259c2.12638.09874,3.3526,1.73967,3.13783,3.98045-.44439,4.63655-.8086,9.28077-1.20976,13.9215C26.66184,20.59874,26.588,21.17085,26.52295,21.766Z"/>
      <path class="cls-1" d="M24.56049,23.64961c1.01966,0,2.0408-.0293,3.05787.022.23419.01182.45444.30014.6811.46122-.21917.17-.43543.48314-.658.48765q-3.05762.06206-6.11673.01063c-.236-.004-.46685-.30978-.70008-.47565.262-.16637.51648-.46017.78741-.47624.9798-.05811,1.96514-.02288,2.94839-.02288Z"/>
      <path class="cls-1" d="M24.5984,26.488c1.02174.00059,2.04508-.02965,3.06393.02455.21984.01169.4235.32759.63462.50336-.21231.13722-.423.39063-.63717.39362q-3.06417.04277-6.129-.00738c-.23454-.00423-.464-.28754-.69587-.44145.23276-.15776.45932-.43974.69935-.45171C22.55346,26.45814,23.57666,26.48739,24.5984,26.488Z"/>
      <path class="cls-1" d="M22.62054,29.918c.23434-.19765.45639-.54535.70526-.56573a18.913,18.913,0,0,1,2.59348-.0058c.19464.01088.37462.28406.56135.43649-.1851.15272-.365.42945-.55617.43748-1.03632.04354-2.07543.02066-3.11358.02066Z"/>
      <path class="cls-2" d="M18.71574,63.24229V62.312a6.11574,6.11574,0,0,0,.735-2.32669,4.92066,4.92066,0,0,0-4.50185-4.63282,11.64064,11.64064,0,0,1-3.0916-.83833A4.40176,4.40176,0,0,0,9.78557,54.087C5.10919,54.087.125,54.54172.125,59.98532c0,1.56188.5558,3.38329,2.12691,3.39018V84.26318s.45468,2.01664,8.2319,2.01664c7.77263,0,8.23193-2.01664,8.23193-2.01664V81.53911c3.28452-.18845,5.88-2.143,5.88-4.55695V67.79694c-.00007-2.40934-2.59552-4.36633-5.88-4.55464M16.70368,80.73514s-.11482,2.01671-6.21987,2.01671c-6.10964,0-6.12576-2.01671-6.12576-2.01671V61.95606a2.541,2.541,0,0,0,2.00975.76711V78.7828c0,.56723-.26187,1.029-.588,1.029s-.588-.46179-.588-1.029v1.029a1.176,1.176,0,0,0,2.35193,0V65.16475A2.04116,2.04116,0,0,0,8.88046,66.467l.51912.17a4.2044,4.2044,0,0,1,1.084.441V79.95887c0,.56727-.26407,1.02891-.588,1.02891-.32617,0-.588-.46164-.588-1.02891v1.02891a1.17593,1.17593,0,1,0,2.35186,0V72.9764c.40889.96461,1.006,1.69051,1.888,1.69051a2.6008,2.6008,0,0,0,1.052-.24352v4.35948c0,.56723-.2618,1.029-.588,1.029s-.588-.46179-.588-1.029v1.029a1.176,1.176,0,0,0,2.35193,0V73.23827a5.43438,5.43438,0,0,0,.53752-2.5909,28.5864,28.5864,0,0,1,.39039-5.73749V80.73514Zm.58346-19.4682a2.32228,2.32228,0,0,1-.99689,1.06576,1.92574,1.92574,0,0,0-.611.55587C15.05,63.7338,14.71,65.4013,14.59978,68.231c-.0322.735-.05048,1.51825-.05048,2.41633,0,.51909-.06888,2.16824-.93256,2.25316-.457-.39735-1.06584-2.79068-1.06584-4.76141a2.73379,2.73379,0,0,0-.89112-2.39791,4.34387,4.34387,0,0,0-1.23575-.62013c-.15614-.05514-.31228-.11027-.48234-.16307l-.45011-.14475-.05286-.01839a.37415.37415,0,0,1-.13086-.07807c-.14471-.11027-.21131-.3583-.27114-1.07492-.07342-.859-.22044-2.6552-2.3841-2.6552-.758,0-.93483-.13317-.983-.24344A1.47963,1.47963,0,0,0,4.14212,59.728a1.86837,1.86837,0,0,0-1.78,1.54807c-.04136.12863-.10566.32155-.07811.34459a2.87777,2.87777,0,0,1-.395-1.63541c0-3.0916,1.99136-4.13432,7.89657-4.13432a2.70657,2.70657,0,0,1,1.37354.28477,13.15544,13.15544,0,0,0,3.50045.95546c2.89871.48234,3.018,2.65754,3.03181,2.816a4.295,4.295,0,0,1-.4042,1.3598m5.14495,14.569a3.79382,3.79382,0,0,1-3.71635,3.91161V65.61723c3.675.22278,3.71635,2.69194,3.71635,3.98734Z"/>
    </g>
  </g>
</svg>
