<svg xmlns="http://www.w3.org/2000/svg" viewBox="0 0 102.39851 116.3588">
  <defs>
    <style>
      .cls-1, .cls-2 {
        stroke: #000;
        stroke-miterlimit: 10;
        stroke-width: 2px;
      }

      .cls-2 {
        fill: #fff;
      }
    </style>
  </defs>
  <title>recive_money</title>
  <g id="Layer_2" data-name="Layer 2">
    <g id="Layer_1-2" data-name="Layer 1">
      <path class="cls-1" d="M52.03587,64.44411a31.7227,31.7227,0,1,1,32.021-31.5888A31.73486,31.73486,0,0,1,52.03587,64.44411ZM80.73438,32.8415A28.532,28.532,0,1,0,51.99213,61.28293,28.54616,28.54616,0,0,0,80.73438,32.8415Z"/>
      <path class="cls-1" d="M22.12585,114.96344c-.67814-.79454-1.3041-1.52792-1.99554-2.338a21.87268,21.87268,0,0,1,14.17131-7.23832c9.26471-.98113,18.483-2.41919,27.70185-3.79239a6.799,6.799,0,0,0,3.54128-1.73987q15.14988-14.881,30.09613-29.9673a8.85488,8.85488,0,0,0,2.33211-4.9463,3.8528,3.8528,0,0,0-5.42751-3.87412A10.49017,10.49017,0,0,0,88.996,63.46588c-4.44972,4.51624-8.79521,9.13516-13.31956,13.86474l-2.39207-2.75841.78631.6227c4.85715-5.28331,9.52354-10.76151,14.64518-15.7746a7.55389,7.55389,0,0,1,10.27906.03054,8.19438,8.19438,0,0,1,1.06527,10.31863,16.16722,16.16722,0,0,1-2.35925,2.79343c-9.98055,9.93279-20.00427,19.82236-29.95164,29.78817a8.47682,8.47682,0,0,1-5.20326,2.49817c-10.07281,1.3392-20.15044,2.66412-30.18366,4.26219-2.23376.3558-4.37156,1.65493-6.40944,2.78063A28.02317,28.02317,0,0,0,22.12585,114.96344Z"/>
      <path class="cls-1" d="M42.54451,93.79391V90.57315c.8185-.08924,1.55937-.21309,2.3041-.24418,4.5082-.18819,9.01669-.37291,13.52626-.52387,3.83587-.12841,6.57538-2.26969,6.4444-5.093-.13157-2.83611-2.96288-4.74968-6.8258-4.63254-5.27127.15986-10.54637.49455-15.81326.39751-3.87887-.07146-7.75254-.66808-11.619-1.11319-5.938-.68358-11.19223.50026-15.46534,5.03411C11.27559,88.45142,7.29771,92.35626,3.23427,96.4842L1.346,94.25027c4.71235-4.89877,9.13693-10.1216,14.22152-14.59407,4.35376-3.82963,10.095-4.34962,15.6679-3.4579a90.4869,90.4869,0,0,0,21.02052.90383,69.40982,69.40982,0,0,1,7.796-.15854,8.22274,8.22274,0,0,1,7.96065,7.448A7.98024,7.98024,0,0,1,61.063,92.75407C54.99236,93.34384,48.876,93.46217,42.54451,93.79391Z"/>
      <path class="cls-2" d="M80.73438,32.8415A28.532,28.532,0,1,1,52.67924,4.20809,28.618,28.618,0,0,1,80.73438,32.8415Zm-19.76117-11.323c-1.819-.85465-3.25766-1.93388-4.82234-2.167-2.11085-.31443-2.69553-1.25763-2.43985-3.15637a5.08725,5.08725,0,0,0-.13011-1.17189H51.14725a20.47065,20.47065,0,0,0-.17393,2.09988A1.72918,1.72918,0,0,1,49.41176,19.165c-3.60663.91305-5.33559,2.86313-5.58117,5.8312-.27868,3.36821,1.02947,5.47253,4.60773,7.118,2.21722,1.01962,4.5493,1.792,6.75426,2.83514,2.77083,1.31083,3.74338,3.0525,3.259,5.37461-.44649,2.14035-2.35171,3.38007-5.22388,3.633-3.27063.288-5.86941-1.18324-8.36558-3.19741l-1.84215,2.36226c1.487.892,2.68689,1.97254,4.08153,2.37036,2.59239.73948,4.82283,1.49711,3.89469,4.90372h2.64351l.19365-3.44945a30.15793,30.15793,0,0,0,4.65282-2.076,6.90616,6.90616,0,0,0-.41226-11.68893c-2.83583-1.61265-5.98532-2.66593-8.955-4.05384a3.76929,3.76929,0,0,1-2.269-4.52155c.39464-1.9364,1.83516-2.66909,3.61175-2.99974a10.3728,10.3728,0,0,1,8.45748,2.27149Z"/>
      <path class="cls-1" d="M60.97321,21.51851l-2.0541,2.35932a10.3728,10.3728,0,0,0-8.45748-2.27149c-1.7766.33065-3.21711,1.06334-3.61175,2.99974a3.76929,3.76929,0,0,0,2.269,4.52155c2.96968,1.38791,6.11917,2.4412,8.955,4.05384a6.90616,6.90616,0,0,1,.41226,11.68893,30.15793,30.15793,0,0,1-4.65282,2.076l-.19365,3.44945H50.99615c.92815-3.4066-1.30229-4.16424-3.89469-4.90372-1.39463-.39782-2.59451-1.47835-4.08153-2.37036l1.84215-2.36226c2.49616,2.01417,5.095,3.4854,8.36558,3.19741,2.87217-.25291,4.77739-1.49263,5.22388-3.633.4844-2.32211-.48815-4.06378-3.259-5.37461-2.205-1.04311-4.537-1.81553-6.75426-2.83514-3.57826-1.64552-4.8864-3.74984-4.60773-7.118.24558-2.96807,1.97454-4.91815,5.58117-5.8312a1.72918,1.72918,0,0,0,1.56156-2.04179,20.47065,20.47065,0,0,1,.17393-2.09988H53.5809a5.08725,5.08725,0,0,1,.13011,1.17189c-.25568,1.89874.329,2.84195,2.43985,3.15637C57.71554,19.58462,59.15417,20.66386,60.97321,21.51851Z"/>
    </g>
  </g>
</svg>
