<svg xmlns="http://www.w3.org/2000/svg" viewBox="0 0 124.92261 118.59084">
  <defs>
    <style>
      .cls-1 {
        stroke: #000;
        stroke-miterlimit: 10;
        stroke-width: 0.25px;
      }

      .cls-2 {
        fill: #fff;
      }
    </style>
  </defs>
  <title>relese-tab_icon</title>
  <g id="Layer_2" data-name="Layer 2">
    <g id="Layer_1-2" data-name="Layer 1">
      <path class="cls-1" d="M33.08346,36.15011l-3.84135,3.53013A15.66715,15.66715,0,0,0,16.0407,38.16977a15.31093,15.31093,0,0,0-8.386,6.52139,15.56029,15.56029,0,0,0,2.35553,19.55506A15.80572,15.80572,0,0,0,29.84171,65.9455a15.24427,15.24427,0,0,0,6.45415-9.31225,15.41476,15.41476,0,0,0-1.57737-11.28062l3.73935-3.56976A20.51705,20.51705,0,0,1,35.627,67.76155a20.82141,20.82141,0,0,1-29.12087.18854A20.6328,20.6328,0,0,1,5.39373,39.25764,20.83234,20.83234,0,0,1,33.08346,36.15011Z"/>
      <path class="cls-1" d="M19.32812,54.73354a9.49974,9.49974,0,0,0,1.5517-2.38921,38.00556,38.00556,0,0,1,3.36265-5.09A72.29922,72.29922,0,0,1,36.69711,34.87469c.8903-.70934,1.8123-1.37906,2.72512-2.05975a.62071.62071,0,0,1,.366-.15189,3.548,3.548,0,0,1,3.11737,1.84088,4.56,4.56,0,0,1,.2843,2.80326.61357.61357,0,0,1-.50272.57892,14.95893,14.95893,0,0,0-4.9386,2.89746,49.15429,49.15429,0,0,0-6.90727,7.12672,113.71209,113.71209,0,0,0-7.95126,11.0616c-.1839.2889-.29677.62224-.47168.91775a3.80844,3.80844,0,0,1-6.00973.78958c-1.65644-1.61367-3.27372-3.26754-4.92959-4.88182a4.50294,4.50294,0,0,1-1.43668-2.29854,3.23353,3.23353,0,0,1,1.16619-3.30331,3.15681,3.15681,0,0,1,3.29911-.35583,1.0241,1.0241,0,0,1,.35049.26705q2.14623,2.196,4.28515,4.39914C19.20723,54.57161,19.2596,54.64848,19.32812,54.73354Z"/>
    </g>
    <g id="Layer_2-2" data-name="Layer 2">
      <path d="M34.426,94.10606C42.43873,85.4862,50.39,76.8076,58.51567,68.29552c1.64557-1.72381,3.96518-2.79762,5.94124-4.21677.54878-.39411,1.34218-.92971,1.37393-1.44075a2.66431,2.66431,0,0,0-.941-1.98224c-2.83285-2.11655-3.29132-3.40485-2.1878-6.67756a2.37082,2.37082,0,0,0-.03454-1.4453c-1.01447-2.85-.65953-4.68871,1.78605-6.17081,1.39234-.8438,1.32779-1.76708,1.21473-3.05037-.92441-10.49226-1.92421-20.98034-2.64338-31.48732C62.577,5.28114,68.0291-.3097,74.10347.01334,80.71078.36471,85.36862,6.3644,84.63113,13.121c-.87579,8.02371-1.44357,16.081-2.149,24.12337-.13435,1.53163-.26786,3.06382-.43784,4.59173-.23171,2.08275-.31732,3.88469,1.9444,5.27444,1.64725,1.01217,1.90114,3.02577,1.1818,4.99372a3.3724,3.3724,0,0,0-.18974,2.05582c.95461,2.79506.357,4.61557-2.05325,6.33826a14.04033,14.04033,0,0,0-2.05491,2.58284H97.48474c0-.90426,0-1.79157,0-2.67888Q97.484,46.77711,97.48821,33.152c.00473-3.169.30472-3.46491,3.39686-3.48928,2.68445-.02115,5.36921-.0044,8.04658-.0044.87228-1.88337-.11084-2.29283-1.55705-2.7549A13.94492,13.94492,0,0,1,97.51133,14.037,14.12341,14.12341,0,0,1,106.41312.92768c6.81523-2.69278,14.81458.96525,17.57355,8.03621a13.77259,13.77259,0,0,1-8.19946,17.687,5.544,5.544,0,0,0-1.51179.52161,8.45887,8.45887,0,0,0-1.22774,1.57285c.51908.30274,1.02844.84549,1.55889.867,2.38246.09634,4.77117.02358,7.15715.05166,2.76707.03256,3.14977.43264,3.15145,3.278q.0101,17.08952.00268,34.17906c0,15.93484.0292,31.86982-.05735,47.80419-.00665,1.22412-.82952,2.44381-1.273,3.66556H98.64075a12.88627,12.88627,0,0,1-1.10406-3.54257c-.09359-9.84-.05589-19.68122-.06743-29.52207-.001-.81533-.07226-1.63059-.12037-2.64611-.96358,0-1.71777.00014-2.472,0-6.612-.00143-13.22546.08009-19.83525-.04051A13.16289,13.16289,0,0,0,66.68984,85.532C59.2454,90.97405,51.70263,96.28152,44.2436,101.7039c-1.53616,1.11672-2.70668,1.07092-4.00364-.31588-1.88468-2.01521-3.871-3.93535-5.814-5.896Zm8.06317,4.13476c7.55251-5.41459,15.00907-10.72066,22.41775-16.09274a15.16327,15.16327,0,0,1,9.00359-3.1016c8.15933-.03746,16.31906.00954,24.47837-.03,2.158-.01046,3.00619.90613,2.99218,3.07477-.06414,9.92971-.0341,19.86-.03781,29.79013-.00031.825,0,1.64992,0,2.58974h19.65955V33.62894H101.34318V36.273q0,13.62507-.00192,27.25014c-.002,3.18027-.26392,3.465-3.40121,3.47519-9.31285.03019-18.6261.08671-27.93853.02747a11.32509,11.32509,0,0,0-8.93339,3.97656c-6.58676,7.22242-13.2905,14.33811-19.945,21.49878-.66906.72-1.31906,1.45761-1.92955,2.13351ZM77.8928,45.30843c.13719-1.25535.29294-2.462.39763-3.67307.84611-9.78794,1.61426-19.58326,2.55155-29.3624.453-4.72612-2.13329-8.18708-6.61812-8.39533-4.64055-.21548-7.65918,2.74105-7.4505,7.5607.17253,3.98477.59507,7.95946.93784,11.93595.62556,7.2573,1.27407,14.51262,1.92757,21.93415Zm23.46081-31.56716a9.59943,9.59943,0,0,0,9.74846,10.0261A9.81876,9.81876,0,0,0,121.1654,13.7126a9.70308,9.70308,0,0,0-9.98066-9.85294C105.42494,3.86007,101.37947,7.92632,101.35361,13.74127ZM73.75371,49.28113v.01425c-2.07381,0-4.152-.07431-6.21857.04825-.57143.03389-1.10813.65355-1.66076,1.00445.49193.34983.97883.99473,1.47658,1.0032q6.44934.10988,12.901-.02242c.46934-.00953.92547-.67,1.38774-1.02853-.47806-.33974-.94258-.94785-1.43653-.97278C78.05805,49.21933,75.90433,49.28113,73.75371,49.28113Zm.07995,5.98528c-2.155,0-4.31305-.06169-6.46269.04552-.50625.02525-.9841.62-1.475.95271.489.32462.973.92215,1.46768.93108q6.46211.11661,12.92692.01556c.45174-.00631.8961-.54077,1.34388-.8302-.44527-.37073-.87483-1.037-1.3385-1.06166C78.147,55.20512,75.98865,55.2689,73.83366,55.26641Zm-4.17158,7.2357.40146.68146c2.1896,0,4.38122.04825,6.567-.04358.40322-.01694.78263-.60061,1.173-.92271-.39384-.3215-.77344-.89767-1.184-.92062a39.89009,39.89009,0,0,0-5.47.01224C70.62468,61.3519,70.15634,62.08525,69.66208,62.50211Z"/>
      <path class="cls-2" d="M42.48913,98.24081l-3.29556-3.60614c.61048-.67589,1.26049-1.41355,1.92955-2.13351,6.6545-7.16066,13.35825-14.27636,19.945-21.49878a11.32509,11.32509,0,0,1,8.93339-3.97656c9.31242.05923,18.62567.00272,27.93853-.02747,3.13729-.01017,3.39924-.29492,3.40121-3.47519q.00845-13.62507.00192-27.25014V33.62894h19.65955v80.84214H101.34317c0-.93981-.00027-1.76478,0-2.58974.00371-9.9301-.02633-19.86042.03781-29.79013.014-2.16863-.83415-3.08523-2.99218-3.07477-8.15931.03957-16.319-.00743-24.47837.03a15.16327,15.16327,0,0,0-9.00359,3.1016C57.4982,87.52016,50.04164,92.82623,42.48913,98.24081Z"/>
      <path class="cls-2" d="M77.8928,45.30843h-8.254c-.6535-7.42153-1.302-14.67685-1.92757-21.93415-.34277-3.97649-.76532-7.95118-.93784-11.93595-.20868-4.81965,2.81-7.77618,7.4505-7.5607,4.48483.20825,7.0711,3.66921,6.61812,8.39533-.93729,9.77914-1.70545,19.57446-2.55155,29.3624C78.18574,42.84642,78.03,44.05308,77.8928,45.30843Z"/>
      <path class="cls-2" d="M101.35361,13.74127c.02586-5.815,4.07133-9.88121,9.83114-9.88161a9.70308,9.70308,0,0,1,9.98066,9.85294,9.81876,9.81876,0,0,1-10.06333,10.05477A9.59943,9.59943,0,0,1,101.35361,13.74127Zm15.66206-3.67186H105.58227v3.5133h11.43339Zm.07082,5.97717h-5.68222v3.49966h5.55607c.04853-.45473.1125-.81784.12092-1.18224C117.09866,17.61,117.08649,16.85532,117.08649,16.04659Zm-7.98232.07522c-3.78795-.67109-4.13294-.3206-3.37886,3.40322h3.37886Z"/>
      <path class="cls-2" d="M73.75371,49.28113c2.15061,0,4.30434-.0618,6.44949.04643.49395.02492.95847.633,1.43653.97277-.46226.35854-.91839,1.019-1.38774,1.02853q-6.449.13089-12.901.02242c-.49774-.00848-.98465-.65337-1.47658-1.0032.55263-.3509,1.08932-.97056,1.66076-1.00445,2.06654-.12256,4.14476-.04825,6.21857-.04825Z"/>
      <path class="cls-2" d="M73.83366,55.26765c2.155.00124,4.31336-.06253,6.46227.05177.46368.02467.89323.69094,1.3385,1.06167-.44778.28942-.89214.82389-1.34388.83019q-6.46277.09022-12.92692-.01556c-.49467-.00893-.97871-.60646-1.46768-.93108.49092-.33274.96877-.92747,1.475-.95271C69.52061,55.20472,71.67867,55.26641,73.83366,55.26765Z"/>
      <path class="cls-2" d="M69.66208,62.50211c.49426-.41687.9626-1.15022,1.48749-1.19321a39.89009,39.89009,0,0,1,5.47-.01224c.41052.02295.79012.59912,1.184.92062-.3904.3221-.76982.90577-1.173.92271-2.18575.09183-4.37737.04358-6.567.04358Z"/>
      <path d="M117.01567,10.06941v3.5133H105.58227v-3.5133Z"/>
      <path d="M117.08649,16.04659c0,.80873.01217,1.56342-.00524,2.31742-.00842.3644-.07239.72751-.12092,1.18224h-5.55607V16.04659Z"/>
      <path d="M109.10417,16.1218V19.525h-3.37886C104.97123,15.8012,105.31622,15.45071,109.10417,16.1218Z"/>
    </g>
  </g>
</svg>
