<svg xmlns="http://www.w3.org/2000/svg" viewBox="0 0 124.92261 118.59084">
  <defs>
    <style>
      .cls-1, .cls-2 {
        stroke: #000;
        stroke-miterlimit: 10;
      }

      .cls-1 {
        stroke-width: 0.25px;
      }

      .cls-2 {
        fill: none;
        stroke-width: 4px;
      }
    </style>
  </defs>
  <title>reserve-tab_icon</title>
  <g id="Layer_2" data-name="Layer 2">
    <g id="Layer_2-2" data-name="Layer 2">
      <path class="cls-1" d="M33.08346,36.15011l-3.84135,3.53013A15.66715,15.66715,0,0,0,16.0407,38.16977a15.31093,15.31093,0,0,0-8.386,6.52139,15.56029,15.56029,0,0,0,2.35553,19.55506A15.80572,15.80572,0,0,0,29.84171,65.9455a15.24427,15.24427,0,0,0,6.45415-9.31225,15.41476,15.41476,0,0,0-1.57737-11.28062l3.73935-3.56976A20.51705,20.51705,0,0,1,35.627,67.76155a20.82141,20.82141,0,0,1-29.12087.18854A20.6328,20.6328,0,0,1,5.39373,39.25764,20.83234,20.83234,0,0,1,33.08346,36.15011Z"/>
      <path d="M34.426,94.10606C42.43873,85.4862,50.39,76.8076,58.51567,68.29552c1.64557-1.72381,3.96518-2.79762,5.94124-4.21677.54878-.39411,1.34218-.92971,1.37393-1.44075a2.66431,2.66431,0,0,0-.941-1.98224c-2.83285-2.11655-3.29132-3.40485-2.1878-6.67756a2.37082,2.37082,0,0,0-.03454-1.4453c-1.01447-2.85-.65953-4.68871,1.78605-6.17081,1.39234-.8438,1.32779-1.76708,1.21473-3.05037-.92441-10.49226-1.92421-20.98034-2.64338-31.48732C62.577,5.28114,68.0291-.3097,74.10347.01334,80.71078.36471,85.36862,6.3644,84.63113,13.121c-.87579,8.02371-1.44357,16.081-2.149,24.12337-.13435,1.53163-.26786,3.06382-.43784,4.59173-.23171,2.08275-.31732,3.88469,1.9444,5.27444,1.64725,1.01217,1.90114,3.02577,1.1818,4.99372a3.3724,3.3724,0,0,0-.18974,2.05582c.95461,2.79506.357,4.61557-2.05325,6.33826a14.04033,14.04033,0,0,0-2.05491,2.58284H97.48474c0-.90426,0-1.79157,0-2.67888Q97.484,46.77711,97.48821,33.152c.00473-3.169.30472-3.46491,3.39686-3.48928,2.68445-.02115,5.36921-.0044,8.04658-.0044.87228-1.88337-.11084-2.29283-1.55705-2.7549A13.94492,13.94492,0,0,1,97.51133,14.037,14.12341,14.12341,0,0,1,106.41312.92768c6.81523-2.69278,14.81458.96525,17.57355,8.03621a13.77259,13.77259,0,0,1-8.19946,17.687,5.544,5.544,0,0,0-1.51179.52161,8.45887,8.45887,0,0,0-1.22774,1.57285c.51908.30274,1.02844.84549,1.55889.867,2.38246.09634,4.77117.02358,7.15715.05166,2.76707.03256,3.14977.43264,3.15145,3.278q.0101,17.08952.00268,34.17906c0,15.93484.0292,31.86982-.05735,47.80419-.00665,1.22412-.82952,2.44381-1.273,3.66556H98.64075a12.88627,12.88627,0,0,1-1.10406-3.54257c-.09359-9.84-.05589-19.68122-.06743-29.52207-.001-.81533-.07226-1.63059-.12037-2.64611-.96358,0-1.71777.00014-2.472,0-6.612-.00143-13.22546.08009-19.83525-.04051A13.16289,13.16289,0,0,0,66.68984,85.532C59.2454,90.97405,51.70263,96.28152,44.2436,101.7039c-1.53616,1.11672-2.70668,1.07092-4.00364-.31588-1.88468-2.01521-3.871-3.93535-5.814-5.896Zm8.06317,4.13476c7.55251-5.41459,15.00907-10.72066,22.41775-16.09274a15.16327,15.16327,0,0,1,9.00359-3.1016c8.15933-.03746,16.31906.00954,24.47837-.03,2.158-.01046,3.00619.90613,2.99218,3.07477-.06414,9.92971-.0341,19.86-.03781,29.79013-.00031.825,0,1.64992,0,2.58974h19.65955V33.62894H101.34318V36.273q0,13.62507-.00192,27.25014c-.002,3.18027-.26392,3.465-3.40121,3.47519-9.31285.03019-18.6261.08671-27.93853.02747a11.32509,11.32509,0,0,0-8.93339,3.97656c-6.58676,7.22242-13.2905,14.33811-19.945,21.49878-.66906.72-1.31906,1.45761-1.92955,2.13351ZM77.8928,45.30843c.13719-1.25535.29294-2.462.39763-3.67307.84611-9.78794,1.61426-19.58326,2.55155-29.3624.453-4.72612-2.13329-8.18708-6.61812-8.39533-4.64055-.21548-7.65918,2.74105-7.4505,7.5607.17253,3.98477.59507,7.95946.93784,11.93595.62556,7.2573,1.27407,14.51262,1.92757,21.93415Zm23.46081-31.56716a9.59943,9.59943,0,0,0,9.74846,10.0261A9.81876,9.81876,0,0,0,121.1654,13.7126a9.70308,9.70308,0,0,0-9.98066-9.85294C105.42494,3.86007,101.37947,7.92632,101.35361,13.74127ZM73.75371,49.28113v.01425c-2.07381,0-4.152-.07431-6.21857.04825-.57143.03389-1.10813.65355-1.66076,1.00445.49193.34983.97883.99473,1.47658,1.0032q6.44934.10988,12.901-.02242c.46934-.00953.92547-.67,1.38774-1.02853-.47806-.33974-.94258-.94785-1.43653-.97278C78.05805,49.21933,75.90433,49.28113,73.75371,49.28113Zm.07995,5.98528c-2.155,0-4.31305-.06169-6.46269.04552-.50625.02525-.9841.62-1.475.95271.489.32462.973.92215,1.46768.93108q6.46211.11661,12.92692.01556c.45174-.00631.8961-.54077,1.34388-.8302-.44527-.37073-.87483-1.037-1.3385-1.06166C78.147,55.20512,75.98865,55.2689,73.83366,55.26641Zm-4.17158,7.2357.40146.68146c2.1896,0,4.38122.04825,6.567-.04358.40322-.01694.78263-.60061,1.173-.92271-.39384-.3215-.77344-.89767-1.184-.92062a39.89009,39.89009,0,0,0-5.47.01224C70.62468,61.3519,70.15634,62.08525,69.66208,62.50211Z"/>
      <line class="cls-2" x1="10.01023" y1="64.24621" x2="37.46976" y2="38.20125"/>
      <line class="cls-2" x1="13.53042" y1="42.71797" x2="30.7691" y2="59.29542"/>
      <path d="M116.97625,9.68451v3.5133H105.54286V9.68451Z"/>
      <path d="M108.94542,15.9093v3.40322h-3.08916C105.16682,15.5887,105.48224,15.23821,108.94542,15.9093Z"/>
      <path d="M117.08649,15.72353c0,.80873.01217,1.56342-.00524,2.31742-.00842.3644-.07239.72751-.12092,1.18224h-5.55607V15.72353Z"/>
    </g>
  </g>
</svg>
