<svg xmlns="http://www.w3.org/2000/svg" viewBox="0 0 91.00945 119.19005">
  <defs>
    <style>
      .cls-1 {
        fill: #fff;
      }
    </style>
  </defs>
  <title>tab_icon</title>
  <g id="Layer_2" data-name="Layer 2">
    <g id="Layer_2-2" data-name="Layer 2">
      <path class="cls-1" d="M0,94.70527V0H91.00945q0,59.595,0,119.19-.92394,0-1.8479,0c.44349-1.22175,1.26636-2.44144,1.273-3.66556.08655-15.93437.05735-31.86935.05735-47.80419q0-17.08953-.00268-34.17906c-.00168-2.84538-.38439-3.24547-3.15145-3.278-2.386-.02808-4.77469.04468-7.15715-.05166-.53045-.02146-1.03981-.56421-1.55889-.867a8.45887,8.45887,0,0,1,1.22774-1.57285,5.544,5.544,0,0,1,1.51179-.52161,13.77259,13.77259,0,0,0,8.19946-17.687c-2.759-7.071-10.75832-10.729-17.57355-8.03621a14.12341,14.12341,0,0,0-8.90179,13.10928,13.94492,13.94492,0,0,0,9.86327,12.86641c1.44621.46207,2.42933.87154,1.55705,2.7549-2.67737,0-5.36213-.01676-8.04658.0044-3.09214.02437-3.39213.32029-3.39686,3.48928q-.02034,13.62514-.00348,27.25033c0,.88731,0,1.77462,0,2.67888H46.44662a14.04033,14.04033,0,0,1,2.05491-2.58284c2.41023-1.72269,3.00787-3.54319,2.05325-6.33826a3.3724,3.3724,0,0,1,.18974-2.05582c.71934-1.96795.46545-3.98155-1.1818-4.99372-2.26172-1.38975-2.17611-3.19168-1.9444-5.27444.17-1.52791.30349-3.0601.43784-4.59173.70543-8.04237,1.27321-16.09966,2.149-24.12337C50.94266,6.96361,46.28483.96393,39.67752.61255,33.60315.28952,28.151,5.88035,28.59889,12.42362c.71917,10.507,1.719,20.99506,2.64338,31.48732.11306,1.28329.17761,2.20657-1.21473,3.05037-2.44559,1.4821-2.80053,3.32078-1.78605,6.17081a2.37082,2.37082,0,0,1,.03454,1.4453c-1.10352,3.2727-.645,4.561,2.1878,6.67756a2.66431,2.66431,0,0,1,.941,1.98224c-.03175.511-.82515,1.04663-1.37393,1.44075-1.97606,1.41915-4.29566,2.493-5.94124,4.21677C15.964,77.40682,8.01278,86.08542,0,94.70527Z"/>
      <path d="M0,94.70527c8.01278-8.61986,15.964-17.29846,24.08972-25.81054,1.64557-1.72381,3.96518-2.79762,5.94124-4.21677.54878-.39411,1.34218-.92971,1.37393-1.44075a2.66431,2.66431,0,0,0-.941-1.98224c-2.83285-2.11655-3.29132-3.40485-2.1878-6.67756a2.37082,2.37082,0,0,0-.03454-1.4453c-1.01447-2.85-.65953-4.68871,1.78605-6.17081,1.39234-.8438,1.32779-1.76708,1.21473-3.05037-.92441-10.49226-1.92421-20.98034-2.64338-31.48732C28.151,5.88035,33.60315.28952,39.67752.61255c6.60731.35138,11.26514,6.35106,10.52766,13.10766-.87579,8.02371-1.44357,16.081-2.149,24.12337-.13435,1.53163-.26786,3.06382-.43784,4.59173-.23171,2.08275-.31732,3.88469,1.9444,5.27444,1.64725,1.01217,1.90114,3.02577,1.1818,4.99372a3.3724,3.3724,0,0,0-.18974,2.05582c.95461,2.79506.357,4.61557-2.05325,6.33826a14.04033,14.04033,0,0,0-2.05491,2.58284H63.05878c0-.90426,0-1.79157,0-2.67888q-.00072-13.62517.00348-27.25033c.00473-3.169.30472-3.46491,3.39686-3.48928,2.68445-.02115,5.36921-.0044,8.04658-.0044.87228-1.88337-.11084-2.29283-1.55705-2.7549a13.94492,13.94492,0,0,1-9.86327-12.86641A14.12341,14.12341,0,0,1,71.98717,1.5269c6.81523-2.69278,14.81458.96525,17.57355,8.03621a13.77259,13.77259,0,0,1-8.19946,17.687,5.544,5.544,0,0,0-1.51179.52161,8.45887,8.45887,0,0,0-1.22774,1.57285c.51908.30274,1.02844.84549,1.55889.867,2.38246.09634,4.77117.02358,7.15715.05166,2.76707.03256,3.14977.43264,3.15145,3.278q.0101,17.08952.00268,34.17906c0,15.93484.0292,31.86982-.05735,47.80419-.00665,1.22412-.82952,2.44381-1.273,3.66556H64.2148a12.88627,12.88627,0,0,1-1.10406-3.54257c-.09359-9.84-.05589-19.68122-.06743-29.52207-.001-.81533-.07226-1.63059-.12037-2.64611-.96358,0-1.71777.00014-2.472,0-6.612-.00143-13.22546.08009-19.83525-.04051a13.16289,13.16289,0,0,0-8.35184,2.69242c-7.44445,5.44208-14.98721,10.74954-22.44624,16.17193C8.28149,103.41984,7.111,103.374,5.814,101.98724,3.92933,99.972,1.943,98.05189,0,96.0912ZM8.06317,98.84c7.55251-5.41459,15.00907-10.72066,22.41775-16.09274a15.16327,15.16327,0,0,1,9.00359-3.1016c8.15933-.03746,16.31906.00954,24.47837-.03,2.158-.01046,3.00619.90613,2.99218,3.07477-.06414,9.92971-.0341,19.86-.03781,29.79013-.00031.825,0,1.64992,0,2.58974H86.57677V34.22816H66.91722v2.64408q0,13.62507-.00192,27.25014c-.002,3.18027-.26392,3.465-3.40121,3.47519-9.31285.03019-18.6261.08671-27.93853.02747a11.32509,11.32509,0,0,0-8.93339,3.97656c-6.58676,7.22242-13.2905,14.33811-19.945,21.49878-.66906.72-1.31906,1.45761-1.92955,2.13351ZM43.46685,45.90765c.13719-1.25535.29294-2.462.39763-3.67307.84611-9.78794,1.61426-19.58326,2.55155-29.3624.453-4.72612-2.13329-8.18708-6.61812-8.39533-4.64055-.21548-7.65918,2.74105-7.4505,7.5607.17253,3.98477.59507,7.95946.93784,11.93595.62556,7.2573,1.27407,14.51262,1.92757,21.93415ZM66.92766,14.34049a9.59943,9.59943,0,0,0,9.74846,10.0261A9.81876,9.81876,0,0,0,86.73945,14.31182a9.70308,9.70308,0,0,0-9.98066-9.85294C70.999,4.45928,66.95351,8.52553,66.92766,14.34049ZM39.32776,49.88034v.01425c-2.07381,0-4.152-.07431-6.21857.04825-.57143.03389-1.10813.65355-1.66076,1.00445.49193.34983.97883.99473,1.47658,1.0032q6.44934.10988,12.901-.02242c.46934-.00953.92547-.67,1.38774-1.02853-.47806-.33974-.94258-.94785-1.43653-.97278C43.6321,49.81855,41.47837,49.88034,39.32776,49.88034Zm.07995,5.98528c-2.155,0-4.31305-.06169-6.46269.04552-.50625.02525-.9841.62-1.475.95271.489.32462.973.92215,1.46768.93108q6.46211.11661,12.92692.01556c.45174-.00631.8961-.54077,1.34388-.8302-.44527-.37073-.87483-1.037-1.3385-1.06166C43.72107,55.80434,41.56269,55.86811,39.40771,55.86563Zm-4.17158,7.2357.40146.68146c2.1896,0,4.38122.04825,6.567-.04358.40322-.01694.78263-.60061,1.173-.92271-.39384-.3215-.77344-.89767-1.184-.92062a39.89009,39.89009,0,0,0-5.47.01224C36.19873,61.95111,35.73039,62.68446,35.23613,63.10133Z"/>
      <path class="cls-1" d="M0,96.0912c1.943,1.96068,3.92933,3.88082,5.814,5.896,1.297,1.3868,2.46748,1.4326,4.00364.31588,7.459-5.42239,15.0018-10.72985,22.44624-16.17193a13.16289,13.16289,0,0,1,8.35184-2.69242c6.6098.1206,13.22328.03908,19.83525.04051.75418.00017,1.50837,0,2.472,0,.0481,1.01552.11941,1.83078.12037,2.64611.01155,9.84085-.02615,19.68207.06743,29.52207a12.88627,12.88627,0,0,0,1.10406,3.54257H0Q0,107.64187,0,96.0912Z"/>
      <path class="cls-1" d="M8.06317,98.84,4.76761,95.23389c.61048-.67589,1.26049-1.41355,1.92955-2.13351,6.6545-7.16066,13.35825-14.27636,19.945-21.49878A11.32509,11.32509,0,0,1,35.57556,67.625c9.31242.05923,18.62567.00272,27.93853-.02747,3.13729-.01017,3.39924-.29492,3.40121-3.47519q.00845-13.62507.00192-27.25014V34.22816H86.57677V115.0703H66.91722c0-.93981-.00027-1.76478,0-2.58974.00371-9.9301-.02633-19.86042.03781-29.79013.014-2.16863-.83415-3.08523-2.99218-3.07477-8.15931.03957-16.319-.00743-24.47837.03a15.16327,15.16327,0,0,0-9.00359,3.1016C23.07225,88.11937,15.61568,93.42544,8.06317,98.84Z"/>
      <path class="cls-1" d="M43.46685,45.90765h-8.254c-.6535-7.42153-1.302-14.67685-1.92757-21.93415-.34277-3.97649-.76531-7.95118-.93784-11.93595-.20868-4.81965,2.81-7.77618,7.4505-7.5607,4.48483.20825,7.0711,3.66921,6.61812,8.39533-.93729,9.77914-1.70545,19.57446-2.55155,29.3624C43.75979,43.44564,43.604,44.65229,43.46685,45.90765Z"/>
      <path class="cls-1" d="M66.92766,14.34049c.02586-5.815,4.07133-9.88121,9.83114-9.88161a9.70308,9.70308,0,0,1,9.98066,9.85294A9.81876,9.81876,0,0,1,76.67612,24.36659,9.59943,9.59943,0,0,1,66.92766,14.34049Zm15.66206-3.67186H71.15632v3.5133H82.58972Zm.07082,5.97717H76.97832v3.49966h5.55607c.04853-.45473.1125-.81784.12092-1.18224C82.67271,18.20922,82.66054,17.45453,82.66054,16.6458Zm-7.98232.07522c-3.78795-.67109-4.13294-.3206-3.37886,3.40322h3.37886Z"/>
      <path class="cls-1" d="M39.32776,49.88034c2.15061,0,4.30434-.0618,6.44949.04643.49395.02492.95847.633,1.43653.97277-.46226.35854-.91839,1.019-1.38774,1.02853q-6.449.13089-12.901.02242c-.49774-.00848-.98465-.65337-1.47658-1.0032.55263-.3509,1.08932-.97056,1.66076-1.00445,2.06654-.12256,4.14476-.04825,6.21857-.04825Z"/>
      <path class="cls-1" d="M39.40771,55.86687c2.155.00124,4.31336-.06253,6.46227.05177.46368.02467.89323.69094,1.3385,1.06167-.44778.28942-.89214.82389-1.34388.83019q-6.46277.09022-12.92692-.01556c-.49467-.00893-.97871-.60646-1.46768-.93108.49092-.33274.96877-.92747,1.475-.95271C35.09466,55.80393,37.25272,55.86563,39.40771,55.86687Z"/>
      <path class="cls-1" d="M35.23613,63.10133c.49426-.41687.9626-1.15022,1.48749-1.19321a39.89009,39.89009,0,0,1,5.47-.01224c.41052.02295.79012.59912,1.184.92062-.3904.3221-.76982.90577-1.173.92271-2.18575.09183-4.37737.04358-6.567.04358Z"/>
      <path d="M82.58972,10.66863v3.5133H71.15632v-3.5133Z"/>
      <path d="M82.66054,16.6458c0,.80873.01217,1.56342-.00524,2.31742-.00842.3644-.07239.72751-.12092,1.18224H76.97832V16.6458Z"/>
      <path d="M74.67822,16.721v3.40322H71.29937C70.54528,16.40041,70.89027,16.04993,74.67822,16.721Z"/>
    </g>
  </g>
</svg>
