<svg xmlns="http://www.w3.org/2000/svg" viewBox="0 0 51.36498 85.14963">
  <defs>
    <style>
      .cls-line {
        fill: #fff;
        stroke-width: 0.25px;
        
      }
    </style>
  </defs>
  <title>waiting</title>
  <g id="Layer_2" data-name="Layer 2">
    <g id="Layer_3" data-name="Layer 3">
      <path d="M51.2162,0,51.365,3.34986H.03345V0Z"/>
      <path d="M47.77361,5.44686c0,5.61461.22984,11.11433-.06914,16.58515-.26245,4.80252-2.88739,8.68061-6.16232,12.05749-1.97539,2.03688-4.13531,3.89344-6.1624,5.88193-2.2939,2.25021-2.29265,3.03981-.04614,5.29905,2.5345,2.54887,5.22756,4.9518,7.62787,7.61956a18.57076,18.57076,0,0,1,4.89067,13.52137c-.151,4.46137-.03127,8.93189-.03127,13.49188H3.5732a13.84188,13.84188,0,0,1-.13832-1.39543c-.013-4.10565.09335-8.21467-.038-12.31621A18.52106,18.52106,0,0,1,8.28309,52.85953c2.21817-2.49128,4.7123-4.73913,7.11208-7.06585,2.93448-2.84514,2.89987-3.443-.04643-6.35348-2.77838-2.74465-5.61364-5.45786-8.13332-8.43113A16.59683,16.59683,0,0,1,3.41174,19.7783c.04811-4.73009.01107-9.46106.01107-14.33144ZM44.34831,76.35328c0-3.67271-.0576-7.08257.01555-10.48961a14.00117,14.00117,0,0,0-3.3787-9.796c-2.48216-2.84453-5.272-5.42313-7.96056-8.08439-3.91208-3.87232-3.931-6.80472.01992-10.6471,1.9917-1.937,4.08354-3.77395,6.02385-5.75995,2.27364-2.32718,4.51017-4.94572,4.79253-8.20365.41019-4.73276.1052-9.5275.1052-14.42375H6.8992c0,3.38537.10833,6.65717-.0261,9.919A16.21419,16.21419,0,0,0,11.294,30.60257c1.37479,1.56011,2.93821,2.95334,4.40508,4.43317a58.61839,58.61839,0,0,1,4.33385,4.47612,4.9144,4.9144,0,0,1,.01453,6.31416,26.00047,26.00047,0,0,1-2.68811,2.91709c-1.84174,1.81951-3.98491,3.40174-5.5215,5.44459C10.04964,56.565,7.90221,59.1963,7.47813,61.958c-.7153,4.65822-.19614,9.506-.19614,14.39524Z"/>
      <path d="M51.23255,81.9708v3.17883H0V81.9708Z"/>
      <path class="cls-line" d="M44.34831,76.35328H7.282c0-4.88925-.51915-9.737.19614-14.39524.42409-2.76175,2.57152-5.393,4.35968-7.77034,1.53659-2.04286,3.67976-3.62508,5.5215-5.44459A26.00047,26.00047,0,0,0,20.04742,45.826a4.9144,4.9144,0,0,0-.01453-6.31416A58.61839,58.61839,0,0,0,15.699,35.03574c-1.46687-1.47983-3.03029-2.87306-4.40508-4.43317A16.21419,16.21419,0,0,1,6.8731,18.86786c.13443-3.2618.0261-6.5336.0261-9.919H43.96611c0,4.89625.305,9.691-.1052,14.42375-.28236,3.25793-2.51889,5.87647-4.79253,8.20365-1.94031,1.986-4.03215,3.823-6.02385,5.75995-3.951,3.84237-3.932,6.77477-.01992,10.6471,2.68857,2.66126,5.4784,5.23986,7.96056,8.08439a14.00117,14.00117,0,0,1,3.3787,9.796C44.29072,69.27072,44.34831,72.68057,44.34831,76.35328ZM8.82012,74.53117H42.21694c1.24168-5.84913-.07452-10.51471-5.39535-13.70083-3.82846-2.2925-7.49905-4.84865-11.18388-7.25057-2.31261,1.4963-4.67242,2.95062-6.95393,4.51886a83.11676,83.11676,0,0,0-7.30148,5.35465,7.364,7.364,0,0,0-2.45307,3.87988A42.62759,42.62759,0,0,0,8.82012,74.53117ZM25.58019,38.77628c2.35967-2.02013,4.80137-3.92386,7.02179-6.05782,2.89274-2.7801,5.718-5.64909,8.34433-8.67759.92478-1.06642,1.17725-2.71587,1.88557-4.46722-4.01757,1.60495-7.50763,2.87627-10.89306,4.38269a14.64226,14.64226,0,0,1-12.57555.01849c-3.41737-1.53208-6.95118-2.80443-10.59688-4.25718.06774.5119.08434.87794.16748,1.22818C9.69757,24.163,11.76049,26.55746,14.1,28.68922,17.87039,32.12476,21.75885,35.43069,25.58019,38.77628Z"/>
      <path d="M8.82012,74.53117a42.62759,42.62759,0,0,1,.10911-7.198,7.364,7.364,0,0,1,2.45307-3.87988,83.11676,83.11676,0,0,1,7.30148-5.35465c2.28151-1.56824,4.64132-3.02256,6.95393-4.51886,3.68483,2.40192,7.35542,4.95806,11.18388,7.25057,5.32082,3.18613,6.637,7.85171,5.39535,13.70083Z"/>
      <path d="M25.58019,38.77628C21.75885,35.43069,17.87039,32.12476,14.1,28.68922c-2.33953-2.13177-4.40245-4.52626-5.16615-7.74339-.08314-.35024-.09975-.71628-.16748-1.22818,3.6457,1.45275,7.17951,2.7251,10.59688,4.25718a14.64226,14.64226,0,0,0,12.57555-.01849c3.38544-1.50643,6.8755-2.77775,10.89306-4.38269-.70832,1.75135-.96079,3.4008-1.88557,4.46722-2.62629,3.0285-5.45159,5.89749-8.34433,8.67759C30.38155,34.85243,27.93986,36.75615,25.58019,38.77628Z"/>
    </g>
  </g>
</svg>
